<svg xmlns="http://www.w3.org/2000/svg" width="80" height="85" viewBox="0 0 80 85" fill="none"><path d="M61.1059 0C50.6696 0 42.2222 8.45771 42.2222 18.894C42.2222 29.3303 50.6799 37.7778 61.1059 37.7778C71.532 37.7778 79.9999 29.3201 79.9999 18.894C79.9999 8.46796 71.5422 0 61.1059 0Z" fill="#00A67E"></path><circle cx="4.18388" cy="14.5683" r="2.39347" transform="rotate(32.0494 4.18388 14.5683)" fill="#00A67E"></circle><circle cx="10.8804" cy="16.4949" r="1.43608" transform="rotate(32.0494 10.8804 16.4949)" fill="#00A67E"></circle><path d="M22.2222 48.3469L31.0789 56.6684L49.9999 38.8906" stroke="#383838" stroke-width="3" stroke-linecap="round"></path><path d="M33.5271 13.6446C35.078 12.5568 37.1442 12.5568 38.6951 13.6446L40.9969 15.259C42.5063 16.3178 44.3529 16.7834 46.1839 16.567L48.9444 16.2407C50.8054 16.0207 52.608 16.9772 53.4692 18.6416L54.8712 21.3509C55.7001 22.9529 57.0786 24.2025 58.7541 24.8707L61.5231 25.9749C63.224 26.6532 64.3443 28.2946 64.3561 30.1257L64.3773 33.4107C64.3887 35.1707 65.0187 36.8707 66.157 38.213L68.2509 40.6822C69.4171 42.0574 69.6498 43.996 68.8422 45.6082L67.3576 48.5717C66.5741 50.1356 66.3619 51.9241 66.7577 53.6279L67.5115 56.8734C67.9218 58.6396 67.2319 60.4794 65.7616 61.5405L63.2337 63.3649C61.7906 64.4063 60.7649 65.9269 60.3398 67.6551L59.5793 70.7467C59.1366 72.5462 57.6361 73.8903 55.799 74.133L52.9646 74.5076C51.1534 74.7469 49.4918 75.6391 48.2917 77.0167L46.3765 79.2154C45.1358 80.6398 43.1375 81.1376 41.3735 80.4619L38.7941 79.4737C37.0667 78.812 35.1556 78.812 33.4281 79.4737L30.8487 80.4619C29.0847 81.1376 27.0865 80.6398 25.8457 79.2154L23.9305 77.0167C22.7305 75.6391 21.0689 74.7469 19.2576 74.5076L16.4232 74.133C14.5861 73.8903 13.0856 72.5462 12.643 70.7467L11.8824 67.655C11.4574 65.9269 10.4316 64.4063 8.98853 63.3649L6.46061 61.5405C4.9903 60.4794 4.30045 58.6396 4.71069 56.8734L5.46455 53.6279C5.8603 51.9241 5.6481 50.1356 4.86466 48.5717L3.38005 45.6082C2.57242 43.996 2.80511 42.0574 3.97133 40.6822L6.06521 38.213C7.20354 36.8707 7.83352 35.1707 7.8449 33.4107L7.86612 30.1257C7.87796 28.2946 8.99821 26.6532 10.6991 25.9749L13.4682 24.8707C15.1436 24.2025 16.5221 22.9529 17.3511 21.3509L18.753 18.6416C19.6142 16.9772 21.4168 16.0207 23.2779 16.2407L26.0383 16.567C27.8693 16.7834 29.7159 16.3178 31.2254 15.259L33.5271 13.6446L32.6657 12.4166L33.5271 13.6446Z" stroke="#383838" stroke-width="3"></path></svg>